<?xml version="1.0" encoding="UTF-8" standalone="no"?>
<!-- Generator: Adobe Illustrator 13.0.2, SVG Export Plug-In . SVG Version: 6.00 Build 14948)  -->

<svg
   xmlns:dc="http://purl.org/dc/elements/1.1/"
   xmlns:cc="http://creativecommons.org/ns#"
   xmlns:rdf="http://www.w3.org/1999/02/22-rdf-syntax-ns#"
   xmlns:svg="http://www.w3.org/2000/svg"
   xmlns="http://www.w3.org/2000/svg"
   xmlns:sodipodi="http://sodipodi.sourceforge.net/DTD/sodipodi-0.dtd"
   xmlns:inkscape="http://www.inkscape.org/namespaces/inkscape"
   version="1.1"
   id="Layer_1"
   x="0px"
   y="0px"
   width="123.30225"
   height="123.27204"
   viewBox="-0.258 -0.548 123.30225 123.27204"
   xml:space="preserve"
   inkscape:version="0.48.0 r9654"
   sodipodi:docname="trailerpark.svg"
   inkscape:export-filename="/var/www/trailerpark/static/images/trailerpark.png"
   inkscape:export-xdpi="46.720001"
   inkscape:export-ydpi="46.720001"><metadata
   id="metadata17"><rdf:RDF><cc:Work
       rdf:about=""><dc:format>image/svg+xml</dc:format><dc:type
         rdf:resource="http://purl.org/dc/dcmitype/StillImage" /><dc:title></dc:title></cc:Work></rdf:RDF></metadata><defs
   id="defs15">
	
	
	
	
</defs><sodipodi:namedview
   pagecolor="#ffffff"
   bordercolor="#666666"
   borderopacity="1"
   objecttolerance="10"
   gridtolerance="10"
   guidetolerance="10"
   inkscape:pageopacity="0"
   inkscape:pageshadow="2"
   inkscape:window-width="1366"
   inkscape:window-height="744"
   id="namedview13"
   showgrid="false"
   borderlayer="false"
   fit-margin-top="0"
   fit-margin-left="0"
   fit-margin-right="0"
   fit-margin-bottom="0"
   inkscape:zoom="1"
   inkscape:cx="94.066639"
   inkscape:cy="83.950338"
   inkscape:window-x="0"
   inkscape:window-y="24"
   inkscape:window-maximized="1"
   inkscape:current-layer="Layer_1" />
<path
   inkscape:connector-curvature="0"
   id="path5"
   d="m 106.81958,120.80582 c 7.88361,0 14.27962,-6.38828 14.27962,-14.27286 V 15.650083 c 0,-7.8836108 -6.39601,-14.2651216 -14.27962,-14.2651216 H 15.9512 c -7.8836118,0 -14.2796216,6.3815108 -14.2796216,14.2651216 v 90.882877 c 0,7.88362 6.3960098,14.27286 14.2796216,14.27286 h 90.86838 z"
   style="fill:none;stroke:#ffffff;stroke-width:3.86641048999999981;stroke-miterlimit:4;stroke-opacity:1;stroke-dasharray:none" /><g
   id="g3766"
   transform="matrix(0.96660265,0,0,0.96660265,1.8198549,-0.21573254)"
   style="fill:#ffffff;fill-opacity:1"><path
     d="m 43.969,83.926 h -20 c -6.93,0 -12.547,-5.609 -12.547,-12.555 L 11.399,49.449 c 0,-9.414 7.617,-17.039 17.016,-17.039 H 86.32 c 9.398,0 17.039,7.625 17.039,17.039 l 0.023,30.961 h 8.859 c 1.906,0 3.469,1.586 3.469,3.492 H 70.75 C 70.305,76.871 64.508,71.285 57.359,71.285 c -7.156,0 -12.953,5.586 -13.39,12.641 z M 89.367,56.043 c 1.953,0 3.516,-1.586 3.516,-3.516 v -5.836 c 0,-1.93 -1.562,-3.516 -3.516,-3.516 H 77.172 c -1.945,0 -3.516,1.586 -3.516,3.516 v 5.836 c 0,1.93 1.57,3.516 3.516,3.516 h 12.195 z m -34.914,0.023 c 1.938,0 3.516,-1.586 3.516,-3.516 v -5.859 c 0,-1.93 -1.578,-3.516 -3.516,-3.516 H 28 c -1.945,0 -3.516,1.586 -3.516,3.516 v 5.859 c 0,1.93 1.57,3.516 3.516,3.516 h 26.453 z"
     id="path9"
     inkscape:connector-curvature="0"
     style="fill:#ffffff;fill-opacity:1" /><path
     d="m 47.688,84.785 c 0,-5.352 4.32,-9.68 9.672,-9.68 5.344,0 9.664,4.328 9.664,9.68 0,5.32 -4.32,9.664 -9.664,9.664 -5.352,0 -9.672,-4.344 -9.672,-9.664 z m 9.671,4.172 c 2.312,0 4.195,-1.852 4.195,-4.172 0,-2.32 -1.883,-4.203 -4.195,-4.203 -2.312,0 -4.188,1.883 -4.188,4.203 0,2.32 1.876,4.172 4.188,4.172 z"
     id="path11"
     inkscape:connector-curvature="0"
     style="fill:#ffffff;fill-opacity:1" /></g>
</svg>